<?xml version="1.0" standalone="no"?>
<!DOCTYPE svg PUBLIC "-//W3C//DTD SVG 20010904//EN"
 "http://www.w3.org/TR/2001/REC-SVG-20010904/DTD/svg10.dtd">
<svg version="1.0" xmlns="http://www.w3.org/2000/svg"
 width="1273.000000pt" height="1273.000000pt" viewBox="0 0 1273.000000 1273.000000"
 preserveAspectRatio="xMidYMid meet">
<metadata>
Created by potrace 1.11, written by Peter Selinger 2001-2013
</metadata>
<g transform="translate(0.000000,1273.000000) scale(0.100000,-0.100000)"
fill="#000000" stroke="none">
<path d="M6045 12611 c-11 -4 -92 -11 -180 -15 -87 -4 -164 -11 -170 -15 -5
-5 -57 -12 -115 -16 -58 -4 -109 -10 -115 -15 -5 -4 -45 -11 -87 -15 -43 -4
-80 -10 -83 -15 -2 -4 -36 -10 -75 -14 -38 -4 -72 -11 -75 -15 -2 -5 -34 -12
-70 -16 -36 -3 -67 -10 -70 -15 -3 -4 -32 -11 -65 -15 -33 -4 -60 -10 -60 -15
0 -4 -22 -10 -50 -14 -27 -4 -52 -11 -55 -15 -3 -5 -28 -12 -55 -16 -28 -4
-50 -10 -50 -14 0 -6 -31 -15 -147 -41 -23 -5 -50 -14 -60 -19 -44 -24 -88
-41 -119 -47 -19 -3 -34 -10 -34 -14 0 -5 -18 -11 -40 -15 -22 -4 -40 -10 -40
-15 0 -4 -16 -11 -35 -14 -19 -4 -35 -11 -35 -16 0 -4 -18 -11 -40 -15 -22 -4
-40 -10 -40 -15 0 -4 -16 -11 -35 -14 -19 -4 -35 -11 -35 -16 0 -4 -13 -11
-30 -15 -16 -4 -30 -11 -30 -16 0 -5 -7 -9 -16 -9 -9 0 -50 -16 -90 -35 -40
-19 -77 -35 -83 -35 -6 0 -11 -4 -11 -9 0 -5 -13 -12 -30 -16 -16 -4 -30 -10
-30 -15 0 -4 -12 -11 -27 -15 -15 -3 -30 -10 -33 -13 -3 -4 -26 -18 -52 -32
-27 -13 -48 -28 -48 -31 0 -4 -13 -10 -30 -14 -16 -4 -30 -11 -30 -16 0 -5 -5
-9 -11 -9 -12 0 -130 -69 -139 -81 -3 -3 -15 -9 -27 -13 -13 -4 -23 -12 -23
-17 0 -5 -6 -9 -13 -9 -8 0 -24 -9 -37 -20 -13 -11 -29 -20 -36 -20 -7 0 -14
-3 -16 -7 -5 -11 -66 -53 -77 -53 -5 0 -11 -3 -13 -7 -1 -5 -29 -26 -60 -47
-32 -22 -58 -43 -58 -48 0 -4 -6 -8 -13 -8 -8 0 -25 -9 -38 -20 -13 -11 -28
-23 -34 -28 -5 -4 -26 -19 -45 -32 -19 -14 -39 -31 -43 -37 -4 -7 -13 -13 -19
-13 -6 0 -20 -11 -32 -23 -12 -13 -29 -28 -38 -33 -25 -14 -97 -75 -150 -126
-27 -27 -53 -48 -57 -48 -4 0 -122 -113 -262 -250 -322 -318 -324 -320 -339
-320 -22 0 -332 -309 -485 -484 -32 -36 -95 -127 -95 -136 0 -6 -6 -18 -12
-25 -40 -44 -74 -96 -83 -125 -4 -14 -21 -41 -36 -61 -16 -20 -29 -40 -29 -43
0 -4 -11 -24 -25 -44 -14 -20 -25 -44 -25 -52 0 -9 -8 -25 -19 -36 -10 -11
-26 -37 -36 -57 -9 -20 -21 -37 -26 -37 -5 0 -9 -11 -9 -24 0 -13 -7 -29 -15
-36 -8 -7 -15 -19 -15 -26 0 -8 -4 -14 -10 -14 -5 0 -10 -5 -10 -10 0 -12 -41
-73 -52 -78 -5 -2 -8 -9 -8 -16 0 -7 -9 -23 -20 -36 -11 -13 -20 -29 -20 -37
0 -7 -4 -13 -9 -13 -5 0 -13 -10 -17 -22 -4 -13 -10 -25 -13 -28 -12 -9 -81
-127 -81 -139 0 -6 -4 -11 -9 -11 -5 0 -12 -13 -16 -30 -4 -16 -11 -30 -16
-30 -5 0 -11 -11 -15 -25 -3 -14 -9 -25 -13 -25 -4 0 -18 -25 -32 -55 -13 -30
-27 -55 -31 -55 -5 0 -8 -5 -8 -11 0 -6 -22 -57 -50 -113 -27 -56 -50 -110
-50 -119 0 -9 -4 -17 -10 -17 -5 0 -10 -6 -10 -12 -1 -7 -9 -31 -20 -53 -11
-22 -19 -46 -20 -52 0 -7 -4 -13 -10 -13 -5 0 -13 -18 -16 -40 -4 -22 -9 -40
-13 -40 -4 0 -17 -34 -30 -75 -13 -41 -27 -75 -31 -75 -4 0 -10 -17 -14 -39
-3 -21 -13 -51 -21 -67 -8 -16 -15 -39 -15 -51 0 -13 -4 -23 -9 -23 -6 0 -13
-20 -17 -45 -3 -25 -10 -45 -14 -45 -5 0 -11 -22 -15 -50 -4 -27 -11 -50 -15
-50 -5 0 -12 -25 -15 -55 -4 -30 -11 -55 -15 -55 -4 0 -11 -27 -15 -60 -4 -33
-11 -60 -15 -60 -4 0 -11 -27 -15 -60 -4 -33 -11 -62 -15 -65 -4 -3 -11 -36
-15 -75 -4 -39 -11 -72 -15 -75 -4 -3 -11 -41 -15 -85 -4 -44 -11 -82 -15 -85
-4 -3 -11 -49 -15 -102 -3 -54 -11 -111 -16 -128 -40 -126 -40 -1181 1 -1270
5 -11 12 -64 15 -117 4 -54 10 -98 15 -98 4 0 11 -38 15 -85 4 -47 10 -87 15
-90 4 -2 10 -36 14 -75 4 -38 11 -72 16 -75 4 -3 11 -32 15 -65 4 -33 11 -60
15 -60 4 0 11 -27 15 -60 4 -33 11 -60 15 -60 4 0 11 -25 15 -55 3 -30 10 -55
15 -55 4 0 11 -22 15 -50 4 -27 10 -50 15 -50 4 0 11 -20 14 -45 4 -25 11 -45
15 -45 5 0 12 -20 15 -45 4 -25 11 -45 15 -45 5 0 12 -20 15 -45 4 -25 11 -45
16 -45 6 0 13 -18 16 -40 4 -22 10 -40 14 -40 4 0 11 -16 14 -35 4 -19 11 -35
16 -35 4 0 11 -18 15 -40 4 -22 10 -40 15 -40 4 0 11 -16 14 -35 4 -19 11 -35
16 -35 4 0 11 -14 15 -30 4 -17 11 -30 16 -30 5 0 9 -7 9 -16 0 -9 16 -50 35
-90 19 -40 35 -77 35 -83 0 -6 4 -11 9 -11 5 0 12 -12 16 -27 3 -15 10 -30 13
-33 4 -3 25 -40 46 -83 22 -42 43 -77 47 -77 4 0 10 -14 14 -30 4 -17 11 -30
16 -30 5 0 9 -5 9 -11 0 -14 71 -133 82 -137 4 -2 8 -9 8 -16 0 -6 16 -35 35
-65 19 -29 35 -56 35 -61 0 -5 3 -10 8 -12 10 -5 52 -66 52 -77 0 -5 3 -11 8
-13 9 -4 52 -65 52 -74 0 -4 11 -17 25 -30 14 -13 25 -27 25 -32 0 -5 9 -20
20 -33 36 -44 69 -87 90 -119 8 -13 27 -36 42 -52 16 -16 28 -32 28 -36 0 -5
16 -23 35 -42 19 -19 35 -39 35 -44 0 -4 18 -25 39 -46 21 -21 43 -45 48 -55
15 -26 149 -168 348 -369 99 -100 197 -202 217 -228 44 -54 299 -308 309 -308
4 0 35 -26 68 -57 66 -64 143 -132 163 -144 14 -9 57 -45 115 -97 20 -17 42
-32 49 -32 7 0 14 -4 16 -9 4 -12 96 -81 107 -81 5 0 11 -7 15 -15 3 -8 12
-15 21 -15 8 0 15 -3 15 -7 0 -5 18 -19 40 -33 22 -13 40 -28 40 -32 0 -4 5
-8 10 -8 9 0 66 -36 80 -50 3 -3 16 -11 30 -18 32 -15 60 -33 78 -49 7 -7 18
-13 23 -13 6 0 17 -6 24 -12 27 -24 41 -33 90 -58 28 -14 52 -27 55 -30 3 -3
16 -11 30 -18 32 -15 64 -35 70 -44 3 -3 18 -10 33 -13 15 -4 27 -11 27 -15 0
-5 13 -11 30 -15 17 -4 30 -10 30 -15 0 -5 14 -11 30 -15 17 -4 30 -10 30 -15
0 -5 13 -11 30 -15 16 -4 30 -10 30 -15 0 -5 13 -11 30 -15 17 -4 30 -11 30
-16 0 -5 6 -9 13 -9 6 -1 30 -9 52 -20 22 -11 48 -19 58 -20 9 0 17 -4 17 -9
0 -5 14 -12 30 -16 17 -4 30 -11 30 -16 0 -5 8 -9 18 -9 9 0 29 -6 44 -14 15
-8 40 -17 57 -21 17 -4 31 -10 31 -15 0 -4 16 -11 35 -14 19 -4 47 -13 62 -21
15 -8 36 -15 45 -15 9 0 19 -4 22 -9 4 -5 24 -12 46 -16 22 -4 40 -10 40 -15
0 -4 20 -11 45 -14 24 -4 47 -11 50 -16 3 -5 26 -12 50 -16 25 -3 48 -10 51
-15 2 -5 27 -11 54 -15 28 -4 50 -10 50 -14 0 -5 23 -11 52 -15 29 -4 59 -11
68 -16 8 -4 42 -13 75 -19 33 -6 89 -17 125 -23 36 -7 70 -15 75 -19 6 -3 44
-10 85 -13 41 -4 80 -11 85 -15 6 -5 53 -11 105 -15 52 -4 102 -11 110 -15 8
-4 60 -11 114 -14 90 -7 98 -6 87 8 -8 9 -26 16 -42 16 -16 0 -29 4 -29 9 0 5
-21 12 -47 16 -27 4 -52 10 -58 15 -5 4 -19 10 -30 13 -13 3 -9 5 12 6 17 0
34 -3 37 -8 4 -5 41 -12 84 -16 42 -4 82 -11 87 -15 6 -4 51 -11 100 -15 50
-4 104 -11 120 -16 131 -41 1242 -41 1315 0 9 5 62 12 118 16 56 4 102 11 102
15 0 4 37 11 83 15 45 4 87 10 92 15 6 4 37 10 69 13 32 3 64 11 69 16 6 6 20
11 32 11 27 0 329 73 335 81 3 4 26 10 53 14 26 4 47 11 47 15 0 4 20 11 45
14 25 4 45 11 45 15 0 5 20 12 45 15 25 4 45 11 45 15 0 5 20 12 45 15 25 4
45 11 45 16 0 4 18 11 40 15 22 4 40 11 40 16 0 5 8 9 18 9 9 0 30 7 46 15 15
8 33 15 40 15 6 1 29 9 51 20 22 11 46 19 53 20 6 0 12 5 12 10 0 6 10 10 23
10 12 0 33 7 45 16 12 8 22 13 22 10 0 -3 25 6 55 19 30 14 61 22 70 19 8 -4
15 -1 15 6 0 6 4 9 9 6 5 -4 11 -1 13 5 2 5 17 12 33 13 16 2 31 9 33 15 2 6
8 9 13 6 5 -3 19 0 31 7 13 7 25 13 28 13 39 10 59 19 64 30 3 8 13 11 24 8
10 -2 25 1 33 9 8 7 19 13 24 14 24 3 55 17 55 26 0 5 5 6 11 2 6 -3 24 3 40
15 16 12 34 19 39 16 5 -3 11 -1 15 5 4 6 10 8 15 5 4 -3 10 1 13 8 3 7 23 19
46 27 23 7 41 17 41 22 0 5 4 7 9 3 5 -3 16 2 25 11 9 8 20 12 26 9 5 -3 10
-2 10 3 0 6 18 17 39 25 22 9 42 21 46 27 3 5 13 10 21 10 9 0 22 6 29 13 36
32 46 38 54 33 7 -5 20 3 69 44 7 6 16 9 21 6 5 -3 18 2 29 12 33 28 62 47 72
47 5 0 18 8 30 17 11 10 20 15 20 11 0 -3 9 4 19 16 10 12 23 21 27 19 10 -3
62 29 84 52 8 8 24 16 34 18 11 2 27 13 37 25 10 12 18 18 19 13 0 -5 9 3 20
17 11 14 31 29 43 33 12 3 32 18 45 32 12 14 22 22 22 17 0 -4 12 6 28 22 15
16 32 28 39 26 6 -2 28 13 47 33 20 21 36 36 36 32 0 -3 18 12 40 33 22 22 45
39 50 39 6 0 33 23 60 52 28 29 50 49 50 45 0 -5 34 27 75 69 41 42 75 74 75
70 0 -9 20 8 98 85 153 152 282 291 277 300 -4 5 -1 9 4 9 6 0 11 6 11 13 0 7
17 29 38 48 49 46 92 97 92 108 0 4 20 27 45 50 25 23 45 48 45 56 0 13 25 47
68 91 6 7 12 15 12 19 0 3 11 18 25 33 14 15 25 34 25 43 0 8 11 26 25 39 14
13 25 28 25 33 0 5 12 21 26 34 14 13 23 30 20 38 -3 8 6 23 19 34 14 10 25
23 25 28 0 6 9 18 20 28 11 10 20 25 20 33 0 15 39 75 52 80 4 2 8 15 8 28 0
13 4 24 9 24 5 0 14 14 21 30 7 17 16 30 21 30 5 0 9 11 9 24 0 13 3 26 8 28
14 6 53 69 48 77 -3 5 1 14 9 21 8 7 15 18 15 25 0 7 7 16 16 19 10 4 13 13 9
25 -3 12 0 21 10 25 9 3 13 10 10 16 -3 6 1 13 10 16 9 4 15 14 14 23 -3 22
11 54 28 64 8 5 11 16 8 28 -4 11 -2 19 4 19 6 0 11 7 11 15 0 9 7 18 15 22 9
3 15 13 14 22 -4 22 10 61 22 61 5 0 9 11 9 24 0 14 5 28 10 31 6 3 10 17 10
31 0 13 4 24 9 24 8 0 21 29 25 55 1 6 7 20 14 32 7 12 12 31 12 42 0 11 5 23
10 26 6 3 10 17 10 31 0 13 4 24 9 24 5 0 18 35 30 77 11 42 26 80 32 84 7 4
9 14 6 22 -3 8 1 24 9 36 8 12 12 25 9 31 -3 5 -1 17 4 27 5 10 14 36 19 58 6
22 19 74 31 115 26 97 35 131 36 150 1 8 5 23 9 33 5 10 6 20 3 23 -3 3 1 21
9 39 8 19 14 50 14 70 0 19 5 35 10 35 6 0 10 15 9 32 -1 18 5 71 14 118 19
101 26 149 41 280 4 36 9 79 11 95 2 17 5 60 7 98 1 37 5 67 8 67 3 0 5 33 5
73 0 162 14 419 23 430 6 7 13 48 17 92 3 44 10 89 15 100 9 19 19 107 39 350
11 130 11 721 0 850 -23 272 -31 342 -39 360 -5 11 -12 57 -15 103 -4 45 -11
84 -15 87 -4 3 -11 38 -15 80 -4 41 -10 77 -15 80 -4 3 -11 34 -15 70 -3 36
-10 65 -15 65 -4 0 -11 27 -15 60 -4 33 -11 60 -15 60 -4 0 -11 27 -15 60 -4
33 -11 60 -15 60 -4 0 -11 20 -14 45 -4 24 -11 47 -16 50 -4 3 -11 28 -15 55
-4 28 -11 50 -15 50 -5 0 -12 20 -16 45 -3 25 -10 45 -15 45 -4 0 -11 20 -15
45 -3 25 -10 45 -14 45 -5 0 -11 18 -15 40 -4 22 -10 40 -15 40 -5 0 -11 18
-15 40 -4 22 -10 40 -15 40 -5 0 -11 18 -15 40 -4 22 -10 40 -15 40 -4 0 -11
16 -14 35 -4 19 -11 35 -16 35 -6 0 -10 6 -10 13 0 6 -6 24 -14 39 -8 15 -17
40 -21 57 -4 17 -11 31 -16 31 -5 0 -9 6 -9 13 -1 6 -9 30 -20 52 -11 22 -19
46 -20 53 0 6 -4 12 -9 12 -5 0 -12 14 -16 30 -4 17 -10 30 -15 30 -5 0 -11
14 -15 30 -4 17 -10 30 -15 30 -4 0 -11 12 -15 27 -3 15 -10 30 -13 33 -4 3
-18 28 -32 55 -14 28 -27 52 -30 55 -3 3 -16 26 -30 53 -13 26 -28 47 -31 47
-4 0 -10 14 -14 30 -4 17 -10 30 -15 30 -5 0 -12 10 -16 22 -3 12 -12 28 -18
35 -24 27 -32 39 -39 55 -3 10 -38 65 -77 123 -94 141 -114 169 -122 173 -5 2
-8 10 -8 18 0 8 -7 17 -15 20 -8 4 -15 10 -15 15 0 8 -65 98 -79 109 -3 3 -17
21 -31 40 -30 44 -38 54 -72 90 -15 16 -30 36 -35 44 -11 21 -75 94 -143 165
-30 32 -72 78 -92 103 -42 51 -247 254 -293 290 -16 13 -53 47 -81 75 -29 29
-55 53 -59 53 -5 0 -23 16 -42 35 -19 19 -37 35 -41 35 -4 0 -23 15 -43 33
-35 31 -61 52 -124 99 -16 12 -35 27 -42 33 -23 19 -38 30 -75 55 -21 14 -38
28 -38 33 0 4 -7 7 -15 7 -9 0 -18 7 -21 15 -3 8 -15 17 -27 21 -11 3 -25 10
-31 15 -49 41 -60 49 -68 49 -5 0 -14 5 -21 10 -48 41 -62 50 -74 50 -7 0 -13
5 -13 10 0 6 -4 10 -9 10 -5 0 -33 16 -62 35 -30 19 -59 35 -66 35 -7 0 -13 5
-13 10 0 6 -6 10 -13 10 -8 0 -24 9 -37 20 -13 11 -29 20 -37 20 -7 0 -13 3
-13 8 0 4 -25 18 -55 32 -30 14 -55 28 -55 32 0 3 -13 9 -30 13 -16 4 -30 10
-30 15 0 5 -13 11 -30 15 -16 4 -30 10 -30 15 0 5 -13 11 -30 15 -16 4 -30 10
-30 15 0 5 -13 11 -30 15 -16 4 -30 11 -30 16 0 5 -6 9 -12 9 -7 1 -31 9 -53
20 -22 11 -46 19 -52 20 -7 0 -13 4 -13 9 0 5 -14 12 -31 16 -17 4 -42 13 -57
21 -15 8 -33 14 -39 14 -7 0 -13 4 -13 9 0 5 -18 12 -40 16 -22 4 -40 11 -40
16 0 5 -8 9 -17 9 -10 0 -31 7 -46 15 -15 8 -43 17 -62 21 -19 3 -35 10 -35
15 0 4 -20 11 -45 15 -25 3 -45 10 -45 15 0 4 -20 11 -45 15 -25 3 -45 10 -45
15 0 4 -20 11 -45 15 -25 3 -45 10 -45 14 0 4 -19 10 -42 14 -24 4 -54 9 -68
12 -17 3 -12 -2 15 -16 22 -11 48 -20 58 -20 9 0 17 -4 17 -10 0 -5 10 -10 23
-10 12 0 35 -7 50 -15 15 -8 43 -17 62 -21 19 -3 35 -10 35 -14 0 -5 18 -11
40 -15 22 -4 40 -10 40 -15 0 -4 16 -11 35 -14 19 -4 35 -11 35 -16 0 -6 8
-10 18 -10 9 -1 35 -9 57 -20 22 -11 48 -19 58 -20 9 0 17 -4 17 -9 0 -5 14
-12 30 -16 17 -4 30 -10 30 -15 0 -5 14 -11 30 -15 17 -4 30 -11 30 -16 0 -5
5 -9 12 -9 13 0 220 -101 228 -112 3 -3 18 -10 33 -13 15 -4 27 -10 27 -14 0
-4 12 -12 28 -18 26 -12 62 -33 72 -43 3 -3 27 -16 55 -30 27 -14 55 -29 62
-35 7 -5 18 -15 26 -21 7 -6 23 -15 35 -18 12 -4 22 -12 22 -17 0 -5 6 -9 14
-9 8 0 21 -6 28 -13 7 -7 31 -24 53 -37 22 -13 65 -42 97 -65 31 -22 66 -47
78 -55 12 -8 31 -23 42 -32 12 -10 25 -18 30 -18 5 0 19 -11 32 -25 13 -14 28
-25 34 -25 6 0 15 -6 19 -13 4 -7 19 -20 33 -29 14 -8 37 -26 51 -39 39 -35
110 -93 123 -101 19 -12 249 -224 345 -319 99 -98 341 -359 341 -368 0 -3 17
-25 38 -47 35 -40 53 -62 104 -129 33 -44 36 -47 68 -85 16 -19 32 -43 36 -52
3 -10 10 -18 15 -18 5 0 9 -7 9 -15 0 -7 6 -18 13 -22 16 -10 57 -69 57 -82 0
-5 3 -11 8 -13 10 -5 52 -66 52 -77 0 -5 3 -11 8 -13 11 -5 52 -66 52 -78 0
-5 4 -10 10 -10 5 0 12 -11 16 -25 3 -14 10 -25 15 -25 5 0 9 -7 9 -15 0 -9 6
-18 14 -21 8 -3 18 -19 21 -35 4 -16 11 -29 16 -29 5 0 11 -11 15 -25 3 -14
10 -25 15 -25 5 0 9 -6 9 -13 0 -8 9 -24 20 -37 11 -13 20 -29 20 -37 0 -7 4
-13 9 -13 5 0 12 -13 16 -30 4 -16 10 -30 15 -30 4 0 11 -12 15 -27 3 -15 10
-30 13 -33 10 -8 82 -155 82 -168 0 -7 4 -12 9 -12 5 0 12 -13 16 -30 4 -16
10 -30 15 -30 5 0 11 -13 15 -30 4 -16 11 -30 16 -30 5 0 9 -7 9 -16 0 -14 12
-45 56 -141 8 -17 14 -36 14 -42 0 -6 5 -11 10 -11 6 0 10 -10 10 -22 1 -13 9
-41 20 -63 11 -22 19 -48 20 -57 0 -9 4 -19 9 -22 5 -3 12 -22 15 -41 4 -19
11 -35 15 -35 5 0 12 -20 15 -45 4 -25 11 -45 15 -45 5 0 12 -20 15 -45 4 -25
11 -45 15 -45 5 0 11 -22 15 -50 4 -27 11 -52 16 -55 5 -3 12 -28 16 -55 4
-28 10 -50 14 -50 4 0 11 -25 15 -55 3 -30 10 -57 15 -60 4 -3 11 -32 15 -65
4 -33 11 -60 15 -60 4 0 11 -28 15 -62 4 -35 11 -67 15 -73 12 -16 21 -107 10
-100 -6 3 -10 16 -10 29 0 12 -6 31 -14 41 -8 11 -12 25 -9 31 2 7 0 15 -6 19
-6 3 -11 22 -11 41 0 19 -5 34 -11 34 -5 0 -7 4 -4 10 3 5 -1 19 -9 31 -8 12
-12 27 -10 34 3 7 1 16 -5 19 -5 3 -19 38 -31 76 -12 38 -26 72 -31 76 -5 3
-7 9 -4 14 3 5 -2 21 -11 35 -9 14 -14 28 -11 32 4 3 -2 18 -13 33 -11 16 -20
34 -20 42 0 7 -7 23 -15 34 -8 12 -12 24 -9 27 4 3 -3 19 -15 35 -11 16 -18
32 -15 35 4 3 -3 19 -15 35 -11 16 -18 32 -15 35 4 3 -3 19 -15 35 -11 16 -18
32 -15 35 4 3 -3 19 -15 35 -12 17 -21 36 -21 44 0 7 -9 24 -20 38 -11 14 -20
32 -20 40 0 8 -9 26 -20 40 -11 14 -20 31 -20 38 0 7 -11 28 -25 46 -14 18
-25 39 -25 46 0 7 -11 28 -25 46 -14 18 -25 40 -25 48 0 9 -4 16 -9 16 -5 0
-11 8 -15 18 -3 9 -15 31 -26 47 -11 17 -24 39 -30 50 -17 34 -34 58 -72 106
-21 26 -38 52 -38 59 0 7 -18 34 -40 60 -22 26 -40 53 -40 60 0 7 -22 38 -50
70 -27 32 -50 61 -50 65 0 4 -29 40 -64 79 -35 39 -66 80 -70 91 -4 11 -38 54
-76 95 -67 72 -70 74 -70 46 0 -16 7 -38 17 -48 9 -10 14 -20 11 -23 -8 -9
-58 35 -58 52 0 8 -31 51 -70 94 -38 44 -70 84 -70 90 0 5 -16 23 -35 40 -19
17 -35 36 -35 41 0 6 -29 37 -64 69 -34 32 -69 71 -77 87 -15 31 -436 439
-450 435 -4 -1 -37 23 -72 55 -157 138 -191 166 -202 168 -15 2 -123 84 -149
113 -10 11 -23 18 -28 15 -5 -4 -25 9 -44 27 -19 18 -34 29 -34 25 0 -4 -16 6
-35 23 -20 17 -39 31 -44 31 -4 0 -39 20 -77 45 -93 60 -103 67 -126 88 -12 9
-25 17 -30 17 -5 0 -16 6 -23 13 -32 28 -43 35 -63 41 -12 4 -22 12 -22 17 0
5 -4 9 -9 9 -5 0 -33 16 -62 35 -30 19 -59 35 -66 35 -7 0 -13 5 -13 10 0 6
-6 10 -13 10 -8 0 -24 9 -37 20 -13 11 -29 20 -37 20 -7 0 -13 3 -13 8 0 4
-25 18 -55 32 -30 14 -55 28 -55 32 0 3 -13 9 -30 13 -16 4 -30 10 -30 15 0 5
-13 11 -30 15 -16 4 -30 10 -30 15 0 5 -13 11 -30 15 -16 4 -30 10 -30 15 0 5
-13 11 -30 15 -16 4 -30 10 -30 15 0 5 -13 11 -30 15 -16 4 -30 11 -30 15 0 5
-16 12 -35 16 -19 3 -35 10 -35 15 0 4 -16 11 -35 15 -19 3 -35 10 -35 14 0 4
-16 11 -35 14 -19 4 -35 11 -35 16 0 6 -8 10 -17 10 -10 0 -30 6 -45 14 -15 8
-40 17 -57 21 -17 4 -31 10 -31 15 0 4 -19 10 -42 14 -23 4 -45 12 -49 17 -3
6 -25 13 -48 16 -22 3 -41 9 -41 13 0 4 -16 11 -35 14 -19 4 -35 11 -35 15 0
5 -25 12 -55 16 -30 3 -55 10 -55 15 0 5 -22 12 -50 16 -27 4 -50 10 -50 15 0
4 -25 11 -55 14 -30 4 -55 11 -55 15 0 4 -27 11 -60 15 -33 4 -60 11 -60 15 0
5 -29 12 -65 15 -36 4 -68 11 -70 16 -3 4 -37 11 -75 15 -39 4 -73 10 -75 14
-3 5 -40 11 -83 15 -42 4 -81 11 -87 15 -5 4 -53 11 -105 15 -52 3 -108 11
-125 16 -76 24 -950 50 -1000 30z m-465 -285 c0 -2 -7 -7 -16 -10 -8 -3 -12
-2 -9 4 6 10 25 14 25 6z m-77 -23 c-7 -2 -19 -2 -25 0 -7 3 -2 5 12 5 14 0
19 -2 13 -5z m-88 -17 c-31 -14 -50 -11 -40 5 4 5 21 9 38 9 l32 -1 -30 -13z
m-95 -17 c0 -5 -4 -7 -10 -4 -5 3 -10 1 -10 -5 0 -6 -4 -8 -10 -5 -5 3 -18 2
-28 -4 -11 -6 -24 -6 -32 -1 -17 10 -5 17 45 23 17 2 33 5 38 6 4 0 7 -4 7
-10z m40 7 c0 -11 -19 -15 -25 -6 -3 5 1 10 9 10 9 0 16 -2 16 -4z m-180 -30
c0 -2 -7 -6 -15 -10 -8 -3 -15 -1 -15 4 0 6 7 10 15 10 8 0 15 -2 15 -4z m-60
-10 c0 -2 -7 -6 -15 -10 -8 -3 -15 -1 -15 4 0 6 7 10 15 10 8 0 15 -2 15 -4z
m-2030 -1112 c0 -7 -48 -54 -56 -54 -2 0 -13 -8 -23 -17 -10 -10 -35 -31 -56
-48 -20 -16 -56 -49 -81 -72 -25 -24 -49 -43 -54 -43 -14 0 -590 -569 -785
-776 -60 -64 -132 -139 -158 -166 -26 -28 -46 -55 -44 -62 2 -6 -20 -34 -50
-63 -29 -28 -53 -56 -53 -62 0 -6 -18 -30 -40 -52 -22 -23 -40 -48 -40 -57 0
-8 -16 -29 -35 -48 -19 -18 -35 -36 -35 -41 0 -4 -11 -21 -25 -37 -14 -16 -25
-35 -25 -42 0 -7 -11 -24 -25 -38 -14 -14 -25 -29 -25 -34 0 -12 -39 -46 -45
-40 -3 3 1 11 10 18 8 7 15 19 15 26 0 8 4 14 10 14 5 0 12 11 16 25 3 14 10
25 15 25 5 0 9 4 9 9 0 5 16 33 35 62 19 30 35 59 35 65 0 7 4 14 8 16 11 4
82 123 82 136 0 6 3 12 8 14 11 5 52 66 52 78 0 5 5 10 10 10 6 0 10 5 10 10
0 9 35 65 50 80 14 14 50 70 50 79 0 5 7 11 15 15 8 3 15 12 15 21 0 8 4 15 9
15 5 0 12 8 15 18 4 9 20 33 36 52 37 44 41 49 61 80 9 14 27 37 40 51 13 15
35 41 49 59 54 69 109 133 170 199 19 21 70 77 114 125 43 47 86 86 96 86 9 0
25 11 36 24 10 14 21 23 24 21 4 -2 16 5 28 15 12 11 26 20 33 20 6 0 20 10
30 22 11 11 19 17 19 13 0 -4 9 2 19 14 11 13 24 20 29 17 8 -5 20 3 69 44 7
6 17 9 22 8 10 -3 38 14 73 44 11 10 24 15 29 12 5 -3 14 0 21 6 49 41 62 49
69 44 5 -3 16 1 24 8 33 29 41 34 53 30 6 -2 15 3 18 12 6 15 24 23 24 10z
m7876 -740 c3 -12 30 -43 60 -68 30 -26 54 -52 54 -58 0 -6 20 -28 45 -50 25
-22 45 -47 45 -55 0 -8 29 -48 65 -88 36 -40 65 -77 65 -82 0 -5 9 -18 20 -28
11 -10 20 -24 20 -31 0 -8 11 -21 25 -30 14 -9 25 -23 25 -31 0 -8 20 -39 45
-70 25 -30 45 -60 45 -67 0 -7 23 -37 50 -68 28 -31 57 -72 66 -90 8 -18 28
-55 44 -83 16 -27 34 -61 40 -75 19 -45 34 -75 52 -101 10 -14 15 -29 12 -32
-4 -3 3 -19 15 -35 12 -17 21 -35 21 -40 0 -6 6 -23 14 -39 7 -15 21 -45 30
-66 25 -60 58 -137 86 -202 8 -16 13 -34 12 -38 -1 -4 3 -18 10 -30 7 -12 12
-26 13 -32 0 -5 6 -20 12 -31 7 -12 10 -24 7 -27 -3 -3 1 -16 10 -29 9 -12 16
-32 16 -45 0 -12 4 -24 9 -27 5 -4 12 -24 16 -46 4 -22 15 -62 25 -89 17 -48
17 -66 -1 -55 -5 3 -9 14 -9 25 0 10 -4 19 -10 19 -5 0 -10 8 -10 18 0 10 -7
28 -16 40 -8 12 -12 22 -7 22 4 0 3 4 -3 8 -6 4 -28 50 -49 102 -38 98 -190
408 -251 515 -19 33 -48 86 -65 119 -17 32 -39 68 -49 79 -11 11 -26 35 -35
54 -21 44 -200 310 -230 343 -13 14 -29 36 -34 50 -6 14 -29 52 -51 85 -22 33
-43 68 -46 78 -4 9 -10 17 -15 17 -5 0 -9 6 -9 13 0 12 -9 26 -50 74 -5 7 -10
16 -10 21 0 5 -9 20 -20 33 -29 35 -31 38 -74 102 -22 31 -43 57 -48 57 -4 0
-8 7 -8 15 0 8 -9 23 -20 32 -11 10 -20 22 -20 27 0 5 -11 19 -24 31 -13 12
-25 26 -27 32 -5 12 -54 74 -90 113 -88 94 -53 76 64 -35 76 -71 140 -139 143
-151z m314 -276 c0 -6 -7 -5 -15 2 -8 7 -15 17 -15 22 0 6 7 5 15 -2 8 -7 15
-17 15 -22z m30 -49 c0 -6 -4 -7 -10 -4 -5 3 -10 11 -10 16 0 6 5 7 10 4 6 -3
10 -11 10 -16z m-4475 -233 c567 -76 1050 -253 1505 -551 400 -262 720 -582
995 -995 479 -720 668 -1608 524 -2465 -211 -1267 -1117 -2317 -2349 -2722
-213 -70 -457 -122 -720 -155 -139 -17 -611 -17 -750 0 -338 42 -612 109 -892
218 -313 121 -520 236 -863 480 -164 117 -452 395 -599 579 -480 603 -741
1309 -763 2065 -23 815 228 1580 733 2230 106 136 360 400 494 512 573 481
1285 770 2025 821 126 9 547 -2 660 -17z m-5408 -508 c-7 -10 -15 -18 -19 -18
-5 0 -8 -7 -8 -15 0 -8 -4 -23 -9 -33 -31 -61 -63 -161 -55 -173 2 -4 0 -10
-6 -14 -5 -3 -10 -18 -10 -33 0 -15 -7 -40 -15 -55 -8 -15 -19 -49 -24 -75
-20 -96 -33 -142 -40 -142 -3 0 -18 -21 -31 -47 -14 -26 -31 -54 -37 -61 -7
-7 -13 -20 -13 -28 0 -8 -4 -14 -9 -14 -5 0 -12 -13 -16 -30 -4 -16 -11 -30
-16 -30 -5 0 -11 -11 -15 -25 -3 -14 -9 -25 -13 -25 -4 0 -18 -25 -32 -55 -13
-30 -27 -55 -31 -55 -3 0 -9 -13 -13 -30 -4 -16 -11 -30 -16 -30 -5 0 -9 -6
-9 -12 0 -7 -7 -26 -16 -43 -9 -16 -20 -41 -25 -55 -7 -19 -8 -13 -4 20 3 24
10 49 15 55 5 6 12 30 16 53 4 23 10 45 15 47 4 3 11 26 15 50 3 25 10 45 14
45 4 0 11 16 14 35 4 19 13 47 21 62 8 15 15 33 15 39 0 7 7 25 15 40 8 16 15
37 15 47 0 9 5 17 10 17 6 0 10 8 10 18 1 9 9 35 20 57 11 22 19 48 20 58 0 9
4 17 9 17 5 0 12 14 16 30 4 17 10 30 15 30 5 0 11 14 15 30 4 17 10 30 15 30
5 0 11 14 15 30 4 17 10 30 15 30 4 0 11 12 15 27 3 15 10 30 14 33 4 3 16 23
28 45 41 79 58 109 71 123 6 7 12 20 12 28 0 8 5 14 10 14 6 0 10 8 10 18 0
14 2 14 9 3 6 -9 5 -21 -2 -33z m-510 -480 c-3 -8 -6 -5 -6 6 -1 11 2 17 5 13
3 -3 4 -12 1 -19z m-27 -63 c-6 -15 -13 -25 -16 -23 -2 3 1 17 7 32 16 34 23
27 9 -9z m-38 -104 c-5 -3 -13 -21 -17 -39 -4 -18 -13 -45 -21 -60 -8 -15 -14
-34 -14 -43 0 -9 -7 -30 -15 -45 -8 -16 -15 -40 -15 -54 0 -14 -7 -34 -15 -44
-8 -11 -15 -32 -15 -48 0 -15 -4 -28 -9 -28 -5 0 -12 -22 -16 -50 -4 -27 -10
-52 -15 -55 -4 -3 -11 -26 -15 -52 -4 -27 -10 -52 -15 -58 -4 -5 -13 -37 -19
-70 -7 -33 -18 -87 -24 -120 -7 -33 -15 -64 -19 -70 -3 -5 -9 -37 -13 -70 -3
-33 -10 -69 -15 -80 -9 -20 -21 -97 -41 -265 -6 -47 -14 -101 -20 -120 -11
-44 -27 -260 -39 -535 -5 -115 -14 -219 -19 -230 -44 -86 -46 -1222 -2 -1360
5 -16 12 -70 16 -120 4 -49 10 -94 15 -100 4 -5 10 -41 14 -80 4 -38 11 -74
15 -80 5 -5 12 -40 16 -78 3 -37 10 -67 15 -67 4 0 11 -29 15 -65 3 -36 10
-67 15 -70 4 -3 11 -28 15 -55 4 -27 11 -52 15 -55 4 -3 11 -28 15 -55 4 -27
10 -52 15 -55 4 -3 11 -25 14 -50 4 -24 11 -47 17 -50 5 -4 9 -16 9 -28 0 -12
7 -35 15 -51 8 -15 15 -36 15 -45 0 -9 7 -29 15 -44 8 -15 17 -43 21 -62 3
-19 10 -35 14 -35 4 0 11 -15 14 -34 6 -31 23 -75 47 -118 5 -10 9 -23 9 -30
1 -7 9 -31 20 -53 11 -22 19 -46 20 -52 0 -7 5 -13 10 -13 6 0 10 -7 10 -16 0
-9 16 -50 35 -90 19 -40 35 -77 35 -83 0 -6 5 -11 10 -11 6 0 10 -7 10 -15 0
-14 99 -215 111 -225 3 -3 9 -14 13 -25 7 -19 7 -19 -12 1 -11 11 -23 30 -26
42 -4 12 -12 22 -17 22 -5 0 -9 7 -9 15 0 9 -7 18 -15 21 -8 4 -15 11 -15 18
0 6 -16 35 -35 65 -19 29 -35 57 -35 62 0 5 -4 9 -10 9 -5 0 -10 5 -10 11 0 7
-14 34 -30 61 -17 27 -28 53 -25 57 2 5 -2 14 -9 21 -8 6 -18 25 -21 41 -4 17
-13 42 -21 57 -8 15 -14 35 -14 44 0 9 -4 19 -9 23 -5 3 -13 20 -16 38 -4 17
-12 41 -18 52 -6 11 -12 27 -13 35 -1 8 -10 35 -19 60 -10 25 -21 59 -25 75
-5 17 -18 62 -30 100 -12 39 -33 111 -46 160 -14 50 -29 106 -35 125 -6 19
-11 42 -13 50 -1 8 -5 22 -9 30 -3 8 -8 33 -11 55 -2 22 -11 66 -20 97 -8 31
-18 74 -21 95 -7 51 -10 65 -18 83 -3 8 -8 33 -10 55 -3 22 -12 82 -21 133 -8
51 -18 114 -20 138 -3 25 -8 49 -10 52 -2 4 -7 45 -11 92 -13 155 -21 227 -29
268 -16 85 -26 888 -12 1027 2 28 8 86 11 130 4 44 9 94 11 110 2 17 6 71 9
120 4 50 9 97 12 105 3 8 6 26 8 40 7 80 27 220 36 253 5 20 9 43 8 50 -1 6 0
19 3 27 3 8 11 49 18 90 7 41 17 93 23 115 5 22 11 53 13 69 2 16 8 34 14 41
5 6 8 14 5 16 -2 3 5 41 16 85 11 43 22 90 25 104 3 14 8 32 11 40 3 8 7 22 8
30 2 18 73 269 82 290 3 8 7 17 8 20 1 3 4 12 7 20 25 66 50 149 51 168 1 12
5 22 10 22 4 0 7 9 7 19 0 11 5 23 10 26 6 3 10 13 10 22 0 8 6 29 14 46 7 18
20 48 27 67 10 26 15 30 17 16 2 -10 0 -21 -6 -25z m11228 -289 c0 -23 -17 -4
-23 25 -5 26 -4 26 9 8 8 -10 14 -25 14 -33z m-11530 -100 c0 -5 -7 -23 -16
-40 -8 -18 -13 -36 -10 -41 4 -5 2 -12 -4 -16 -5 -3 -10 -15 -10 -25 0 -10 -5
-31 -11 -47 -13 -30 -14 -36 -25 -100 -4 -24 -10 -43 -14 -43 -4 0 -8 -10 -8
-22 0 -13 -5 -45 -11 -73 -7 -27 -13 -59 -16 -70 -2 -11 -5 -22 -6 -25 -2 -6
-3 -8 -13 -65 -4 -22 -13 -71 -21 -110 -7 -38 -19 -106 -25 -150 -7 -44 -14
-89 -15 -100 -2 -11 -9 -58 -14 -105 -15 -121 -19 -155 -21 -155 -1 0 -3 -29
-15 -175 -4 -41 -8 -93 -11 -115 -30 -296 -16 -991 27 -1310 6 -44 13 -93 15
-110 2 -16 6 -50 9 -75 3 -25 7 -66 10 -92 2 -26 6 -52 9 -57 5 -8 10 -37 22
-126 2 -22 7 -46 10 -54 2 -8 7 -30 10 -50 4 -31 31 -157 51 -241 4 -14 5 -29
4 -34 -1 -4 2 -13 7 -20 5 -6 12 -31 16 -56 4 -25 13 -64 21 -87 8 -23 16 -53
19 -67 3 -14 7 -30 11 -36 6 -10 11 -28 24 -92 5 -21 14 -45 22 -54 8 -10 12
-18 11 -18 -7 -2 11 -82 24 -106 12 -23 49 -132 59 -173 2 -10 0 -15 -6 -12
-5 4 -9 11 -9 16 0 9 -15 46 -56 136 -8 17 -14 36 -14 42 0 6 -4 11 -10 11 -5
0 -10 8 -10 18 0 9 -6 29 -14 44 -8 15 -17 40 -21 57 -4 17 -11 31 -16 31 -5
0 -9 10 -9 23 -1 12 -9 40 -20 62 -11 22 -19 48 -20 57 0 9 -4 19 -9 23 -6 3
-13 26 -17 50 -3 25 -10 45 -14 45 -5 0 -11 19 -15 43 -4 23 -11 47 -15 52 -4
6 -11 29 -15 52 -4 24 -10 45 -15 48 -4 3 -11 28 -15 55 -4 27 -10 52 -15 55
-4 3 -11 29 -15 60 -3 30 -10 57 -15 60 -4 3 -11 32 -15 65 -4 33 -10 60 -15
60 -4 0 -11 34 -15 75 -4 41 -10 77 -15 80 -4 3 -11 41 -15 85 -4 44 -11 82
-15 85 -4 3 -11 49 -15 102 -3 54 -11 112 -16 128 -24 77 -48 736 -30 845 6
36 15 130 20 210 12 171 33 361 43 375 3 6 9 47 13 93 4 45 11 82 15 82 5 0
11 32 15 70 4 39 11 72 15 75 4 3 11 32 15 65 4 33 11 62 15 65 5 3 12 30 15
60 4 31 11 58 15 60 5 3 12 30 15 60 4 30 11 55 16 55 4 0 11 20 15 45 3 25
10 48 15 50 4 3 11 26 15 50 3 25 10 45 14 45 4 0 11 20 14 45 4 25 11 45 16
45 4 0 11 18 15 40 4 22 10 42 15 45 4 3 11 20 14 39 4 20 13 48 21 63 8 15
15 34 15 41 0 6 5 12 10 12 6 0 10 -4 10 -8z m11890 -294 c0 -18 -2 -20 -9 -8
-6 8 -7 18 -5 22 9 14 14 9 14 -14z m-153 -3480 c-3 -8 -6 -5 -6 6 -1 11 2 17
5 13 3 -3 4 -12 1 -19z m-43 -135 c-19 -60 -42 -134 -51 -165 -9 -32 -20 -58
-25 -58 -4 0 -8 -11 -8 -24 0 -14 -4 -28 -10 -31 -5 -3 -10 -17 -10 -31 0 -13
-4 -24 -9 -24 -5 0 -14 -22 -21 -50 -7 -27 -16 -50 -21 -50 -5 0 -9 -11 -9
-25 0 -14 -4 -25 -9 -25 -5 0 -12 -14 -16 -30 -4 -17 -12 -43 -20 -58 -7 -15
-19 -42 -26 -59 -8 -18 -18 -33 -23 -33 -4 0 -6 -9 -3 -21 3 -12 0 -22 -9 -26
-8 -3 -13 -12 -10 -19 3 -8 2 -14 -2 -14 -4 0 -20 -28 -35 -62 -16 -35 -33
-70 -38 -78 -5 -8 -12 -23 -15 -32 -4 -10 -10 -18 -15 -18 -5 0 -9 -11 -9 -24
0 -13 -7 -26 -15 -30 -8 -3 -15 -12 -15 -21 0 -8 -4 -15 -10 -15 -5 0 -10 -11
-10 -25 0 -14 -9 -30 -20 -37 -11 -7 -20 -21 -20 -30 0 -10 -4 -18 -10 -18 -5
0 -10 -8 -10 -18 0 -10 -8 -27 -17 -38 -23 -26 -40 -53 -53 -82 -10 -23 -46
-77 -67 -100 -7 -7 -13 -19 -13 -26 0 -7 -11 -26 -25 -42 -14 -16 -25 -33 -25
-38 0 -5 -12 -19 -26 -31 -15 -13 -24 -29 -22 -36 3 -8 -10 -28 -29 -45 -18
-17 -33 -35 -33 -40 0 -5 -13 -23 -29 -40 -16 -16 -32 -40 -36 -53 -3 -12 -21
-36 -38 -54 -18 -18 -48 -53 -68 -77 -20 -25 -55 -64 -78 -88 -22 -23 -41 -48
-41 -56 0 -21 -309 -346 -329 -346 -6 0 -11 -5 -11 -11 0 -5 -4 -8 -8 -5 -5 3
-37 -26 -72 -64 -35 -38 -66 -68 -68 -65 -3 2 -25 -17 -49 -43 -25 -26 -49
-46 -54 -44 -5 1 -9 -2 -9 -8 0 -6 -4 -9 -9 -8 -5 2 -25 -12 -43 -30 -65 -65
-112 -102 -129 -102 -10 0 -20 -6 -22 -12 -4 -8 -6 -9 -6 -2 -1 7 11 20 27 30
50 32 436 429 504 519 13 16 34 41 48 56 34 37 84 100 89 111 2 5 15 22 30 38
32 35 39 45 71 92 14 21 28 38 33 38 4 0 7 6 7 13 0 7 9 20 20 30 11 9 20 23
20 31 0 8 7 16 15 20 8 3 15 12 15 20 0 8 3 16 8 18 11 5 82 112 82 125 0 6 7
13 15 17 8 3 15 12 15 21 0 8 4 15 9 15 5 0 12 8 16 19 3 10 19 31 35 47 16
16 30 35 30 42 0 6 3 12 8 12 4 0 18 17 32 38 28 41 32 47 60 81 11 13 20 30
20 36 0 7 7 15 15 19 8 3 15 12 15 20 0 8 3 16 8 18 10 4 112 157 112 168 0 6
4 10 10 10 5 0 12 11 16 25 3 14 9 25 13 25 3 0 17 20 31 45 14 25 28 45 31
45 4 0 10 14 14 30 4 17 10 30 14 30 3 0 18 21 31 47 14 26 31 54 38 61 6 7
12 20 12 28 0 8 4 14 9 14 5 0 12 14 16 30 4 17 10 30 15 30 5 0 11 14 15 30
4 17 10 30 15 30 5 0 11 14 15 30 4 17 10 30 15 30 5 0 11 14 15 30 4 17 10
30 15 30 5 0 11 14 15 30 4 17 10 30 15 30 5 0 11 14 15 30 4 17 11 30 16 30
5 0 9 5 9 11 0 6 6 25 14 42 44 96 56 127 56 141 0 9 5 16 10 16 6 0 10 6 10
13 1 6 9 30 20 52 11 22 19 45 20 51 0 7 7 25 15 40 8 16 15 37 15 47 0 9 4
17 9 17 5 0 -6 -48 -25 -107z m-11555 -486 c0 -21 -1 -21 -9 -2 -12 28 -12 37
0 30 6 -3 10 -16 9 -28z m1341 -1439 c0 -5 -9 -4 -20 2 -11 6 -20 17 -20 25 0
8 -4 15 -10 15 -5 0 -10 5 -10 12 0 6 14 -1 30 -17 17 -16 30 -33 30 -37z
m260 -281 c68 -70 125 -125 128 -122 3 3 47 -35 97 -85 51 -49 107 -96 126
-104 19 -8 45 -26 59 -41 35 -38 159 -137 174 -139 7 -1 42 -27 78 -59 36 -31
71 -57 77 -57 13 0 116 -73 126 -90 3 -6 11 -8 17 -4 5 3 23 -6 39 -22 16 -15
29 -24 29 -19 0 5 14 -4 30 -20 17 -16 30 -23 30 -16 0 6 20 -5 44 -25 60 -50
50 -75 -10 -29 -25 19 -60 42 -78 50 -19 9 -52 32 -74 50 -21 19 -42 31 -46
28 -3 -4 -20 6 -36 22 -17 16 -30 25 -30 20 0 -5 -15 6 -34 24 -18 18 -41 33
-50 35 -9 1 -32 17 -51 36 -19 19 -35 30 -35 25 0 -5 -20 10 -44 34 -24 24
-48 41 -53 38 -5 -4 -34 18 -63 48 -29 30 -56 52 -60 50 -4 -2 -42 32 -85 75
-43 43 -82 77 -86 74 -10 -6 -199 166 -264 240 -27 31 -81 91 -120 133 l-70
77 57 -49 c31 -28 111 -108 178 -178z m675 -357 c3 -5 1 -10 -4 -10 -6 0 -11
5 -11 10 0 6 2 10 4 10 3 0 8 -4 11 -10z m117 -92 c160 -117 286 -202 385
-262 50 -31 97 -62 105 -69 7 -7 65 -41 128 -75 63 -34 126 -71 140 -83 l25
-21 -27 16 c-16 9 -28 14 -28 10 0 -3 -11 1 -25 10 -14 9 -25 14 -25 10 0 -3
-11 1 -25 10 -14 9 -25 14 -25 11 0 -4 -13 3 -29 14 -15 11 -30 18 -33 16 -2
-3 -23 11 -46 31 -23 19 -42 32 -42 28 0 -4 -11 3 -24 15 -14 13 -29 20 -34
17 -5 -3 -15 1 -22 9 -17 21 -98 75 -112 75 -6 0 -36 21 -67 48 -30 26 -59 46
-65 44 -5 -2 -26 14 -48 35 -21 20 -38 33 -38 28 0 -5 -20 11 -45 35 -25 24
-45 38 -45 30 0 -8 -20 6 -45 30 -41 40 -54 60 -39 60 3 0 50 -33 106 -72z
m7230 -110 c-7 -7 -12 -8 -12 -2 0 14 12 26 19 19 2 -3 -1 -11 -7 -17z m-62
-52 c0 -2 -7 -6 -15 -10 -8 -3 -15 -1 -15 4 0 6 7 10 15 10 8 0 15 -2 15 -4z
m-346 -41 c-3 -8 -21 -24 -40 -36 -19 -11 -34 -24 -34 -29 0 -5 -8 -11 -17
-14 -10 -4 -34 -20 -53 -36 -45 -38 -44 -38 -112 -84 -32 -22 -58 -43 -58 -47
0 -4 -11 -10 -25 -13 -14 -4 -25 -11 -25 -16 0 -6 -7 -10 -15 -10 -9 0 -18 -7
-21 -15 -4 -8 -12 -15 -19 -15 -8 0 -20 -6 -27 -12 -15 -14 -16 -15 -123 -79
-38 -23 -71 -46 -73 -51 -2 -4 -8 -8 -14 -8 -6 0 -47 -22 -93 -50 -46 -27 -88
-50 -94 -50 -6 0 -11 -4 -11 -9 0 -5 -13 -12 -30 -16 -16 -4 -30 -10 -30 -15
0 -4 -12 -11 -27 -15 -15 -3 -30 -10 -33 -13 -15 -21 -208 -104 -221 -96 -5 3
-9 0 -9 -6 0 -6 -4 -8 -10 -5 -5 3 -10 2 -10 -4 0 -5 -8 -10 -17 -10 -44 -1
-69 -7 -76 -18 -4 -6 -15 -10 -25 -8 -9 1 -30 -4 -45 -12 -15 -7 -32 -11 -36
-8 -5 3 -11 0 -13 -6 -3 -9 -21 -14 -90 -21 -10 -1 -18 -6 -18 -11 0 -4 -4 -5
-10 -2 -5 3 -10 1 -10 -5 0 -7 -8 -9 -20 -5 -11 3 -25 3 -32 -1 -12 -7 -46
-14 -78 -16 -8 0 -19 -4 -25 -7 -5 -4 -19 -7 -30 -7 -11 1 -23 -3 -26 -8 -4
-5 -21 -10 -39 -11 -17 -2 -28 1 -23 5 14 12 75 30 84 24 5 -3 12 2 15 10 3 9
10 14 14 11 5 -3 11 -1 15 4 3 6 12 8 20 4 8 -3 15 1 15 8 0 7 3 9 7 6 3 -4
12 -2 20 4 7 6 13 9 13 6 0 -3 15 0 34 8 18 8 36 11 40 8 3 -4 6 -2 6 3 0 6
16 16 36 23 20 7 62 25 93 39 31 14 58 26 61 27 24 6 50 18 50 23 0 4 12 8 27
9 15 0 32 8 39 17 6 9 18 16 27 16 9 0 19 5 22 10 4 6 11 8 16 5 5 -4 9 -1 9
6 0 6 8 9 20 6 11 -3 20 -1 20 4 0 5 11 14 25 19 14 5 25 14 25 19 0 5 9 7 20
4 12 -3 20 0 20 8 0 7 3 10 6 6 4 -3 13 1 21 9 9 8 20 13 26 11 7 -2 16 0 22
5 5 5 20 17 33 28 13 10 30 16 38 13 8 -3 14 1 14 8 0 7 3 9 6 6 4 -4 15 3 25
14 10 11 29 22 43 23 13 2 32 10 41 20 9 9 22 16 29 16 6 0 18 6 25 13 6 6 15
12 19 12 10 1 106 49 112 57 3 3 18 10 33 13 15 4 27 11 27 15 0 5 14 11 30
15 17 4 30 10 30 13 0 4 25 18 55 32 30 14 55 28 55 33 0 4 6 7 13 7 8 0 24 9
37 20 13 11 29 20 36 20 7 0 14 3 16 8 2 4 25 18 53 32 48 25 63 34 88 56 7 6
23 15 35 18 12 4 22 12 22 17 0 5 6 9 14 9 7 0 19 7 26 15 16 19 21 19 14 0z
m-6456 -218 c12 -11 22 -17 22 -12 0 4 9 0 20 -10 11 -10 23 -15 26 -12 4 4
24 -7 44 -23 20 -16 40 -27 44 -23 3 4 12 -1 19 -11 7 -9 20 -18 28 -19 9 -2
28 -11 42 -20 15 -10 27 -15 27 -12 0 4 14 -3 30 -15 17 -12 30 -18 30 -15 0
4 11 0 25 -9 14 -9 25 -14 25 -11 0 4 14 -3 30 -15 17 -12 30 -18 30 -15 0 3
14 -3 30 -15 17 -12 30 -18 30 -14 0 3 6 1 13 -5 8 -6 28 -12 45 -14 16 -2 42
-11 56 -21 14 -9 26 -14 26 -11 0 4 12 0 28 -8 50 -27 87 -41 108 -42 12 0 29
-6 37 -13 8 -7 24 -15 36 -17 12 -2 27 -7 34 -12 6 -4 21 -8 33 -8 11 0 33 -8
47 -18 16 -10 27 -13 27 -7 0 7 12 2 26 -9 15 -11 30 -18 35 -15 5 3 15 2 22
-3 6 -4 17 -8 22 -10 6 -1 21 -4 34 -7 12 -3 29 -10 37 -17 10 -8 14 -8 14 0
0 8 5 8 18 1 29 -17 76 -33 102 -36 14 -1 25 -3 25 -4 0 -1 9 -4 20 -6 25 -4
59 -12 63 -14 1 -2 5 -3 10 -4 4 -1 12 -4 17 -8 19 -12 38 8 30 31 -8 25 2 27
31 6 12 -8 24 -11 28 -8 3 3 15 -2 26 -12 11 -10 20 -15 20 -10 0 4 6 2 13 -4
8 -6 17 -8 20 -5 3 3 20 -4 36 -16 17 -12 31 -17 31 -11 0 6 11 4 28 -4 35
-18 59 -27 107 -38 6 -1 16 -6 22 -10 7 -5 23 -10 35 -13 38 -9 53 -12 56 -14
3 -4 21 -7 38 -9 8 0 13 -5 9 -10 -3 -6 -17 -6 -34 -1 -16 4 -32 6 -34 3 -3
-2 -15 0 -26 7 -16 8 -21 8 -21 -1 0 -8 -4 -8 -15 1 -9 7 -38 14 -65 15 -27 1
-56 8 -65 15 -11 9 -15 9 -15 1 0 -7 -9 -6 -25 5 -17 11 -25 12 -25 5 0 -7 -5
-9 -12 -4 -7 4 -22 8 -33 8 -11 0 -25 4 -31 7 -6 4 -23 9 -38 12 -15 3 -34 10
-42 17 -11 9 -14 9 -14 0 0 -7 -5 -9 -12 -4 -7 4 -22 8 -33 8 -11 0 -26 5 -34
9 -13 9 -48 16 -81 18 -8 0 -21 5 -27 11 -7 5 -13 6 -13 2 0 -4 -7 -2 -15 5
-11 9 -15 10 -15 1 0 -8 -11 -4 -29 8 -15 11 -31 18 -34 15 -3 -3 -16 0 -29 7
-12 7 -27 12 -32 11 -4 -2 -14 3 -22 9 -8 6 -14 8 -14 4 0 -4 -7 -2 -15 5 -11
9 -15 9 -15 1 0 -7 -10 -5 -26 6 -14 9 -36 18 -47 19 -12 1 -35 8 -52 14 -16
6 -30 10 -31 8 0 -2 -8 3 -18 11 -9 8 -19 11 -23 8 -3 -4 -18 2 -33 13 -15 11
-30 17 -34 13 -3 -3 -14 0 -23 9 -10 8 -27 14 -38 14 -11 -1 -32 7 -47 17 -16
10 -28 16 -28 12 0 -3 -10 0 -22 7 -13 7 -25 13 -28 13 -3 1 -18 7 -35 14 -16
7 -30 11 -30 9 0 -1 -15 7 -32 20 -18 13 -33 20 -33 17 0 -3 -13 3 -30 15 -16
12 -30 18 -30 15 0 -3 -13 3 -30 15 -16 12 -30 18 -30 15 0 -3 -13 3 -30 15
-16 12 -30 19 -30 15 0 -3 -10 0 -22 7 -13 7 -25 13 -28 13 -3 0 -16 7 -30 15
-14 8 -27 15 -30 15 -3 0 -15 6 -27 13 -13 7 -23 10 -23 6 0 -3 -20 10 -44 29
-24 20 -46 33 -50 30 -3 -4 -17 4 -31 17 -14 13 -25 20 -25 15 0 -4 -9 0 -20
10 -11 10 -17 22 -14 26 6 11 20 4 52 -24z m882 -317 c0 -5 -2 -10 -4 -10 -3
0 -8 5 -11 10 -3 6 -1 10 4 10 6 0 11 -4 11 -10z m35 -10 c3 -5 1 -10 -4 -10
-6 0 -11 5 -11 10 0 6 2 10 4 10 3 0 8 -4 11 -10z m79 -22 c4 2 14 -3 22 -9 8
-6 14 -9 14 -6 0 5 91 -23 130 -40 8 -3 17 -7 20 -8 30 -7 147 -50 155 -56 6
-4 32 -13 58 -19 50 -13 72 -29 34 -25 -12 1 -22 3 -22 4 0 2 -8 4 -17 7 -36
8 -44 11 -103 28 -33 10 -66 23 -72 28 -7 6 -13 7 -13 3 0 -4 -7 -2 -15 5 -9
7 -18 10 -22 7 -3 -4 -18 2 -33 13 -15 11 -30 17 -33 13 -4 -3 -13 0 -22 7 -8
7 -15 9 -15 5 0 -4 -7 -2 -15 5 -9 7 -18 10 -22 7 -3 -4 -18 2 -33 13 -15 11
-30 17 -33 14 -9 -9 -28 6 -22 17 4 5 15 4 28 -3 12 -7 26 -11 31 -10z m3581
-338 c3 -5 1 -10 -4 -10 -6 0 -11 5 -11 10 0 6 2 10 4 10 3 0 8 -4 11 -10z
m-1945 -40 c0 -5 -2 -10 -4 -10 -3 0 -8 5 -11 10 -3 6 -1 10 4 10 6 0 11 -4
11 -10z m134 -8 c5 -9 -101 -8 -111 1 -3 4 19 7 50 7 31 0 58 -3 61 -8z
m-1482 -92 c2 5 14 0 28 -10 l25 -20 -35 7 c-42 8 -82 28 -73 37 3 3 17 -1 29
-9 12 -8 24 -10 26 -5z m128 -35 c14 -4 32 -7 40 -8 8 -1 25 -8 38 -15 15 -9
22 -9 22 -2 0 7 5 8 13 3 6 -4 21 -8 32 -8 11 0 26 -4 33 -9 7 -4 24 -9 38
-11 31 -3 57 -25 30 -25 -9 0 -26 5 -36 10 -11 6 -55 15 -97 20 -94 10 -176
33 -181 49 -4 12 7 11 68 -4z m2785 -35 c-3 -4 -32 -11 -65 -15 -33 -4 -60
-11 -60 -15 0 -4 -32 -11 -70 -15 -39 -4 -72 -11 -75 -15 -3 -4 -40 -11 -82
-15 -43 -4 -82 -10 -88 -14 -14 -9 -193 -30 -355 -42 -74 -5 -149 -14 -166
-19 -40 -13 -731 -13 -786 0 -24 5 -101 14 -173 19 -174 13 -497 59 -511 74
-4 4 -17 7 -30 7 -28 0 -54 10 -54 20 0 5 10 7 23 4 12 -3 31 -7 42 -8 11 -2
20 -5 20 -6 0 -4 43 -10 96 -14 25 -2 51 -6 58 -10 6 -4 11 -2 11 5 0 9 4 8
15 -1 8 -6 34 -14 57 -16 24 -3 57 -7 73 -9 110 -15 123 -16 158 -14 6 0 26
-3 42 -6 17 -3 36 -5 43 -5 16 0 24 0 112 -3 41 -1 80 -5 85 -8 6 -3 21 -4 35
-2 30 4 39 5 65 3 11 0 31 1 45 3 14 2 33 -1 43 -5 11 -6 17 -5 17 2 0 8 6 8
20 0 11 -6 20 -7 20 -3 0 10 141 10 158 0 6 -5 12 -5 12 0 0 4 35 8 78 8 42
-1 85 3 94 7 10 5 55 10 100 13 90 5 144 10 198 20 19 3 53 8 75 10 22 2 56 7
75 10 19 2 52 6 73 7 20 2 37 7 37 12 0 5 3 7 6 3 4 -3 21 0 39 7 21 9 37 10
48 4 11 -6 17 -5 17 2 0 7 6 8 18 1 10 -5 24 -6 31 -2 6 4 34 7 62 6 27 -1 49
2 49 7 0 5 8 4 18 -1 10 -5 24 -6 30 -2 7 4 29 6 49 4 20 -1 41 1 47 6 6 5 25
8 43 6 18 -1 38 2 44 6 15 9 41 0 34 -11z"/>
<path d="M6328 8710 c-20 -11 -50 -36 -65 -57 -27 -35 -28 -40 -31 -180 -3
-138 -4 -143 -25 -147 -12 -3 -71 -12 -132 -21 -60 -10 -162 -32 -225 -50
-600 -172 -934 -573 -915 -1096 9 -244 103 -449 287 -624 230 -221 521 -356
1108 -515 345 -94 474 -149 581 -248 81 -75 112 -141 113 -241 0 -101 -30
-169 -116 -255 -66 -66 -194 -138 -270 -151 l-38 -7 -2 318 -3 319 -67 22
c-62 21 -282 83 -293 83 -3 0 -5 -160 -5 -355 0 -195 -2 -355 -5 -355 -21 0
-112 58 -159 101 -74 67 -129 149 -178 263 -56 132 -106 176 -200 176 -70 0
-710 -78 -748 -91 -83 -29 -110 -67 -110 -154 0 -68 26 -149 91 -280 201 -408
585 -641 1182 -720 65 -8 120 -15 123 -15 2 0 4 -59 4 -132 0 -122 2 -134 25
-174 36 -61 86 -89 161 -89 49 0 68 5 102 28 68 45 82 84 82 236 0 148 -9 135
105 146 105 10 297 52 414 92 397 132 689 387 809 706 55 147 74 258 74 437 0
171 -18 281 -66 400 -99 242 -299 429 -606 566 -142 62 -320 120 -629 204
-436 118 -586 178 -686 275 -62 61 -89 122 -89 205 0 120 70 222 197 285 114
57 106 72 109 -197 l3 -232 65 -27 c36 -15 117 -43 180 -62 l115 -35 3 274 c2
220 5 274 16 274 15 0 86 -49 130 -89 15 -14 62 -68 103 -119 82 -103 126
-131 202 -132 74 0 682 99 725 119 97 43 105 102 34 253 -62 130 -108 197
-201 295 -201 210 -502 340 -893 386 l-109 12 -5 141 c-6 155 -11 171 -76 220
-49 38 -141 44 -196 14z"/>
</g>
</svg>
